<?xml version="1.0" encoding="utf-8"?>
<!-- Generator: Adobe Illustrator 23.0.3, SVG Export Plug-In . SVG Version: 6.00 Build 0)  -->
<svg version="1.1" id="Capa_1" xmlns="http://www.w3.org/2000/svg" xmlns:xlink="http://www.w3.org/1999/xlink" x="0px" y="0px"
	 viewBox="0 0 35 23" style="enable-background:new 0 0 35 23;" xml:space="preserve">
    <defs>
        <g id="icon-mail">
        	<path class="st0" d="M19.41,13.73c-0.56,0.44-1.24,0.66-1.91,0.66c-0.67,0-1.35-0.22-1.91-0.66l-0.02-0.01l-2.79-2.31L1.35,22.72
        		C1.7,22.9,2.09,23,2.51,23h29.99c0.42,0,0.81-0.1,1.15-0.28L22.22,11.41L19.41,13.73z"/>
        	<path class="st0" d="M0.38,1.17C0.14,1.55,0,2,0,2.48v18.04c0,0.41,0.1,0.8,0.28,1.14l11.33-11.21L0.38,1.17z"/>
        	<path class="st0" d="M18.47,12.56L33.44,0.19C33.15,0.07,32.83,0,32.49,0H2.51C2.17,0,1.85,0.07,1.56,0.19l14.97,12.37
        		C17.1,13,17.9,13,18.47,12.56z"/>
        	<path class="st0" d="M23.39,10.45l11.33,11.21C34.9,21.32,35,20.93,35,20.52V2.48c0-0.48-0.14-0.93-0.38-1.31L23.39,10.45z"/>
        </g>


        <g id="icon-search">
            <rect class="st1" width="32" height="32"/>
            <path class="st2" d="M27.38,24.95l-8.35-8.35c2.04-3.11,1.7-7.33-1.03-10.06c-3.13-3.13-8.2-3.13-11.33,0
                c-3.13,3.13-3.13,8.2,0,11.33c2.73,2.73,6.95,3.08,10.06,1.03l8.35,8.35c0.63,0.63,1.67,0.63,2.3,0
                C28.01,26.62,28.01,25.58,27.38,24.95z M8.38,16.14c-2.18-2.18-2.18-5.71,0-7.89s5.71-2.18,7.89,0s2.18,5.71,0,7.89
                S10.56,18.32,8.38,16.14z"/>
        </g>
    </defs>
</svg>
