<?xml version="1.0" encoding="utf-8"?>
<!-- Generator: Adobe Illustrator 23.0.3, SVG Export Plug-In . SVG Version: 6.00 Build 0)  -->
<svg version="1.1" id="Capa_1" xmlns="http://www.w3.org/2000/svg" xmlns:xlink="http://www.w3.org/1999/xlink" x="0px" y="0px"
	 viewBox="0 0 32 32" style="enable-background:new 0 0 32 32;" xml:space="preserve">
<style type="text/css">
	.st0{fill:#546E90;}
	.st1{fill:#FFFFFF;}
</style>
<rect class="st0" width="32" height="32"/>
<path class="st1" d="M27.38,24.95l-8.35-8.35c2.04-3.11,1.7-7.33-1.03-10.06c-3.13-3.13-8.2-3.13-11.33,0
	c-3.13,3.13-3.13,8.2,0,11.33c2.73,2.73,6.95,3.08,10.06,1.03l8.35,8.35c0.63,0.63,1.67,0.63,2.3,0
	C28.01,26.62,28.01,25.58,27.38,24.95z M8.38,16.14c-2.18-2.18-2.18-5.71,0-7.89s5.71-2.18,7.89,0s2.18,5.71,0,7.89
	S10.56,18.32,8.38,16.14z"/>
</svg>
