<?xml version="1.0" encoding="utf-8"?>
<!-- Generator: Adobe Illustrator 23.0.3, SVG Export Plug-In . SVG Version: 6.00 Build 0)  -->
<svg version="1.1" id="Capa_1" xmlns="http://www.w3.org/2000/svg" xmlns:xlink="http://www.w3.org/1999/xlink" x="0px" y="0px"
	 viewBox="0 0 29 29" style="enable-background:new 0 0 29 29;" xml:space="preserve">
<style type="text/css">
	.st0{fill:#2C4E78;}
</style>
<g>
	<path class="st0" d="M14.5,0C6.49,0,0,6.49,0,14.5C0,22.51,6.49,29,14.5,29C22.51,29,29,22.51,29,14.5C29,6.49,22.51,0,14.5,0z
		 M14.5,27.14c-6.98,0-12.64-5.66-12.64-12.64S7.52,1.86,14.5,1.86c6.98,0,12.64,5.66,12.64,12.64S21.48,27.14,14.5,27.14z"/>
	<circle class="st0" cx="14.5" cy="7.87" r="5.02"/>
	<path class="st0" d="M18.37,13.07c-1.08,0.81-2.42,1.28-3.87,1.28s-2.79-0.48-3.87-1.28c-2.8,0.7-4.9,3.44-4.9,6.69v1.04
		c0.65,0.91,1.44,1.71,2.34,2.37c1.8,1.34,4.02,2.14,6.43,2.14c2.41,0,4.64-0.8,6.43-2.14c0.9-0.67,1.69-1.47,2.34-2.37v-1.04
		C23.27,16.5,21.17,13.76,18.37,13.07z"/>
</g>
</svg>
